<svg width="200" height="200" viewBox="0 0 200 200" fill="none" xmlns="http://www.w3.org/2000/svg">
<path d="M155.259 101.439C156.97 104.654 160.964 105.874 164.181 104.163C167.398 102.456 168.618 98.4613 166.908 95.247C165.197 92.0281 161.202 90.8075 157.985 92.5182C154.768 94.2261 153.549 98.2213 155.259 101.439ZM181.41 93.3206L178.121 128.289C178.074 128.631 178.01 128.957 177.931 129.268C177.755 129.959 177.516 130.583 177.215 131.144C176.477 132.51 175.4 133.486 174.157 134.098L85.5175 181.23C81.9039 183.151 77.0426 181.665 75.1163 178.053L46.6621 124.524C44.7414 120.916 46.2281 116.054 49.8408 114.131L137.597 67.4703C139.628 65.8776 142.451 65.3078 145.56 66.8244L176.307 83.6991C178.473 84.898 179.959 85.541 180.905 87.4111C181.93 89.2484 181.586 90.7475 181.41 93.3206Z" fill="#00DBDB"/>
<path d="M27.2162 106.848L27.3624 106.592C28.0232 105.386 29.4368 104.673 30.4745 104.132L80.7247 78.5801C81.8636 77.9867 82.9472 77.4851 84.2999 77.5104C85.6488 77.4851 86.8317 78.0524 87.8722 78.5801L138.077 104.116C139.828 105.099 140.712 105.474 141.353 106.821C141.823 107.694 141.84 108.559 141.84 109.55L141.809 161.601C142.089 162.919 141.826 164.319 140.826 165.5C140.18 166.353 139.264 166.961 138.233 167.332L88.0635 192.813C87.0342 193.571 85.7388 194.034 84.3008 193.998V135.25L27.2162 106.848Z" fill="#3848D3"/>
<path d="M27.2161 106.848L84.3008 135.252V193.998C82.8638 194.035 81.5636 193.571 80.5325 192.814L30.3657 167.333C29.3346 166.961 28.416 166.353 27.7682 165.5C26.7709 164.314 26.5084 162.919 26.7887 161.601L26.7577 109.654C26.6125 108.714 26.7399 107.742 27.2161 106.848Z" fill="url(#paint0_linear_2866_806)"/>
<path d="M141.381 106.848L84.3008 135.252V193.998C85.7378 194.035 87.0342 193.571 88.0635 192.814L138.233 167.333C139.264 166.961 140.179 166.353 140.826 165.5C141.825 164.314 142.089 162.919 141.809 161.601L141.84 109.654C141.84 108.589 141.863 107.742 141.381 106.848Z" fill="url(#paint1_linear_2866_806)"/>
<path d="M84.3008 148.453L84.3027 193.997C82.8657 194.034 81.5637 193.574 80.5335 192.816L30.3686 167.336C29.3356 166.965 28.4226 166.355 27.7739 165.499C26.7728 164.318 26.5122 162.922 26.7887 161.6L26.785 152.49C43.521 149.93 63.2182 148.452 84.3017 148.452L84.3008 148.453Z" fill="url(#paint2_linear_2866_806)"/>
<path d="M84.3008 148.453V193.997C85.7378 194.034 87.038 193.574 88.0653 192.816L138.234 167.336C139.267 166.965 140.182 166.355 140.827 165.499C141.832 164.318 142.094 162.922 141.81 161.6L141.819 152.49C125.082 149.931 105.383 148.453 84.3008 148.453Z" fill="url(#paint3_linear_2866_806)"/>
<path d="M141.915 109.549V109.502V109.456C141.915 108.506 141.884 107.667 141.43 106.82C140.787 105.473 139.904 105.097 138.152 104.114L102.684 86.0691L49.9139 114.13C48.7619 114.742 47.8264 115.651 47.1496 116.727L84.3739 135.248V179.719C84.793 179.591 141.894 151.291 141.894 151.291L141.915 109.549Z" fill="url(#paint4_linear_2866_806)"/>
<path d="M141.667 60.3818V107.314C141.611 107.163 141.542 107.003 141.458 106.851L112.399 121.31V60.3818H107.643C105.506 60.3818 104.347 58.1812 104.347 56.912C104.347 54.7822 106.826 52.8352 108.616 50.6455C113.814 44.2647 118.282 38.5812 124.066 32.356C125.553 30.7559 128.392 30.6444 129.998 32.356C135.826 38.5465 140.256 44.2647 145.448 50.6455C147.238 52.8352 149.722 54.7813 149.722 56.912C149.722 58.1812 148.561 60.3818 146.424 60.3818H141.667Z" fill="url(#paint5_linear_2866_806)"/>
<path d="M69.2352 37.0635H64.3505C62.1571 37.0635 60.9694 34.7991 60.9694 33.4961C60.9694 31.3055 63.5144 29.3078 65.3507 27.059C70.6891 20.5076 75.2795 14.6676 81.2187 8.27564C82.7438 6.63054 85.6638 6.51993 87.3117 8.27564C93.2969 14.6302 97.8404 20.5076 103.18 27.059C105.016 29.3078 107.565 31.3055 107.565 33.4961C107.565 34.7991 106.374 37.0635 104.182 37.0635H99.2952V127.827L84.3796 135.249V140.393L84.3046 135.249L69.2371 127.751V37.0635H69.2352Z" fill="url(#paint6_linear_2866_806)"/>
<path d="M27.1852 106.904V79.4819H22.3483C20.1773 79.4819 19 77.2428 19 75.9548C19 73.7839 21.5225 71.8076 23.341 69.5813C28.6213 63.0918 33.1685 57.312 39.0497 50.9838C40.5598 49.3537 43.4469 49.2459 45.0845 50.9838C51.0069 57.2746 55.5073 63.0918 60.7913 69.5813C62.6089 71.8076 65.1323 73.7829 65.1323 75.9548C65.1323 77.2428 63.9549 79.4819 61.784 79.4819H56.9452V121.644L27.218 106.852L27.1852 106.904Z" fill="url(#paint7_linear_2866_806)"/>
<path d="M112.399 121.306L141.454 106.847C141.542 107.003 141.611 107.158 141.667 107.311V65.9424C140.124 66.0061 138.734 66.5741 137.604 67.4693L112.399 80.8691V121.306Z" fill="url(#paint8_linear_2866_806)"/>
<path d="M84.3749 135.251L69.2352 127.717V103.859L99.2942 87.8789V127.832L84.3749 135.251Z" fill="#00D1D1"/>
<path d="M83.1207 58.9749V52.313C81.05 51.7187 79.5286 50.817 78.564 49.6143C77.5976 48.4107 77.1158 46.9496 77.1158 45.2304C77.1158 43.485 77.6613 42.0226 78.7525 40.8424C79.8436 39.6538 81.3031 38.975 83.1207 38.796V37.2297H85.4407V38.796C87.1383 38.9966 88.489 39.5751 89.492 40.5266C90.4969 41.4771 91.1362 42.7535 91.4165 44.3461L87.3632 44.8702C87.1177 43.6188 86.4774 42.7688 85.4407 42.3235V48.5401C88.0035 49.231 89.7489 50.1222 90.6769 51.2236C91.6049 52.3194 92.068 53.7305 92.068 55.4496C92.068 57.3684 91.4821 58.9861 90.3197 60.305C89.1443 61.6145 87.5226 62.4395 85.4407 62.7619V65.0756H83.1207V62.7958C81.2918 62.5727 79.8051 61.8933 78.6568 60.7581C77.5086 59.6211 76.7783 58.0144 76.4577 55.9353L80.6085 55.4487C80.7753 56.2942 81.0987 57.0263 81.5646 57.6384C82.0295 58.257 82.5507 58.6974 83.1207 58.9749ZM83.1207 42.2567C82.4964 42.4789 82.0061 42.85 81.6415 43.3543C81.2768 43.868 81.0997 44.4288 81.0997 45.0409C81.0997 45.6062 81.2628 46.1245 81.5899 46.6072C81.9227 47.09 82.4317 47.4799 83.1207 47.7799V42.2567ZM85.4397 59.2367C86.2384 59.0661 86.8917 58.6826 87.3951 58.0892C87.8966 57.5062 88.1497 56.8125 88.1497 56.0176C88.1497 55.3052 87.9388 54.696 87.516 54.1804C87.0933 53.6639 86.4015 53.2701 85.4397 52.9954V59.2367Z" fill="#E0FBFB"/>
<path d="M125.889 84.8749V78.2126C123.816 77.6183 122.297 76.7193 121.332 75.5167C120.364 74.3103 119.88 72.8473 119.88 71.1291C119.88 69.3893 120.427 67.9259 121.52 66.7448C122.617 65.5608 124.071 64.8774 125.889 64.6993V63.1321H128.209V64.6993C129.906 64.8999 131.255 65.4747 132.26 66.4299C133.263 67.3794 133.908 68.6535 134.183 70.2489L130.137 70.7698C129.886 69.5212 129.244 68.6683 128.209 68.2259V74.4443C130.771 75.1342 132.515 76.0288 133.443 77.1237C134.371 78.2232 134.836 79.6329 134.836 81.3483C134.836 83.2718 134.25 84.8861 133.084 86.205C131.914 87.522 130.291 88.3376 128.209 88.6657V90.978H125.889V88.6982C124.062 88.4751 122.571 87.7957 121.427 86.6568C120.28 85.5207 119.544 83.9167 119.226 81.8376L123.375 81.3483C123.543 82.1976 123.862 82.9258 124.331 83.5426C124.798 84.1547 125.317 84.6003 125.889 84.8749ZM125.889 68.1632C125.266 68.3863 124.772 68.7461 124.411 69.2617C124.047 69.7707 123.866 70.3312 123.866 70.9442C123.866 71.5048 124.031 72.0277 124.364 72.5105C124.695 72.997 125.203 73.387 125.889 73.6795V68.1632ZM128.208 85.139C129.008 84.9628 129.662 84.5815 130.163 83.9957C130.667 83.4051 130.92 82.714 130.92 81.9163C130.92 81.2067 130.705 80.5946 130.282 80.0818C129.861 79.5663 129.169 79.1715 128.208 78.8968V85.139Z" fill="#FFF3D6"/>
<path d="M40.9216 104.416V97.7525C38.8491 97.1591 37.3333 96.2612 36.365 95.0548C35.3967 93.8521 34.9149 92.3886 34.9149 90.6704C34.9149 88.9288 35.4623 87.4667 36.5534 86.2865C37.6464 85.0979 39.1059 84.4191 40.9216 84.2401V82.6702H43.2397V84.2401C44.9383 84.4407 46.2881 85.0114 47.2911 85.9656C48.2941 86.9208 48.9372 88.1939 49.2156 89.7902L45.1661 90.3143C44.9167 89.0592 44.2765 88.2097 43.2397 87.7626V93.9842C45.8044 94.6713 47.5479 95.5664 48.4778 96.665C49.4058 97.7636 49.8689 99.1708 49.8689 100.894C49.8689 102.809 49.2849 104.427 48.1151 105.742C46.9471 107.063 45.3226 107.879 43.2397 108.206V110.52H40.9216V108.24C39.0928 108.021 37.6042 107.337 36.4615 106.201C35.3086 105.061 34.5774 103.454 34.2568 101.379L38.4094 100.893C38.58 101.738 38.8969 102.47 39.3618 103.082C39.8305 103.696 40.3507 104.142 40.9216 104.416ZM40.9216 87.7008C40.2992 87.923 39.8052 88.2917 39.4405 88.7988C39.0759 89.3078 38.8969 89.8729 38.8969 90.485C38.8969 91.0503 39.0656 91.5723 39.3965 92.0513C39.7227 92.5341 40.2354 92.9277 40.9216 93.2239V87.7008ZM43.2397 104.68C44.0412 104.505 44.6936 104.126 45.1951 103.532C45.6966 102.946 45.9516 102.256 45.9516 101.461C45.9516 100.748 45.7407 100.139 45.316 99.6236C44.8933 99.1071 44.2015 98.7132 43.2397 98.4386V104.68Z" fill="#FDE8E8"/>
<path d="M141.895 151.259L84.3748 179.716C83.9811 179.924 84.3748 135.286 84.3748 135.286L141.455 106.885C141.937 107.783 141.916 108.629 141.916 109.696L141.896 151.264V151.259H141.895Z" fill="url(#paint9_linear_2866_806)"/>
<defs>
<linearGradient id="paint0_linear_2866_806" x1="25.5987" y1="140.314" x2="85.1927" y2="160.682" gradientUnits="userSpaceOnUse">
<stop stop-color="#163EC1"/>
<stop offset="0.6129" stop-color="#03A4E6"/>
<stop offset="1" stop-color="#03A4E6"/>
</linearGradient>
<linearGradient id="paint1_linear_2866_806" x1="84.1536" y1="149.928" x2="142.222" y2="150.928" gradientUnits="userSpaceOnUse">
<stop stop-color="#647ABA"/>
<stop offset="1" stop-color="#9F8EC2"/>
</linearGradient>
<linearGradient id="paint2_linear_2866_806" x1="26.4522" y1="167.318" x2="84.6311" y2="171.262" gradientUnits="userSpaceOnUse">
<stop stop-color="#1B2BBB"/>
<stop offset="0.9677" stop-color="#068FDE"/>
<stop offset="1" stop-color="#00ACDC"/>
</linearGradient>
<linearGradient id="paint3_linear_2866_806" x1="82.9781" y1="162.305" x2="142.091" y2="183.802" gradientUnits="userSpaceOnUse">
<stop stop-color="#2C3CC9"/>
<stop offset="1" stop-color="#8360CF"/>
</linearGradient>
<linearGradient id="paint4_linear_2866_806" x1="57.8977" y1="120.715" x2="130.948" y2="145.681" gradientUnits="userSpaceOnUse">
<stop stop-color="#552DB8"/>
<stop offset="0.6129" stop-color="#03A4E6"/>
<stop offset="1" stop-color="#03A4E6"/>
</linearGradient>
<linearGradient id="paint5_linear_2866_806" x1="99.4473" y1="98.2881" x2="153.444" y2="52.2916" gradientUnits="userSpaceOnUse">
<stop stop-color="#FFC338"/>
<stop offset="1" stop-color="#FFE19A"/>
</linearGradient>
<linearGradient id="paint6_linear_2866_806" x1="52.4124" y1="107.004" x2="116.873" y2="40.6465" gradientUnits="userSpaceOnUse">
<stop stop-color="#00DBDB"/>
<stop offset="1" stop-color="#9EF1F1"/>
</linearGradient>
<linearGradient id="paint7_linear_2866_806" x1="19.0907" y1="108.514" x2="70.2616" y2="69.1514" gradientUnits="userSpaceOnUse">
<stop stop-color="#F7A1A4"/>
<stop offset="0.9677" stop-color="#FACBCC"/>
<stop offset="1" stop-color="#F5DBD7"/>
</linearGradient>
<linearGradient id="paint8_linear_2866_806" x1="110.046" y1="108.761" x2="144.484" y2="79.0196" gradientUnits="userSpaceOnUse">
<stop stop-color="#FFC338"/>
<stop offset="1" stop-color="#63D29C"/>
</linearGradient>
<linearGradient id="paint9_linear_2866_806" x1="82.673" y1="157.816" x2="143.146" y2="128.79" gradientUnits="userSpaceOnUse">
<stop stop-color="#4A48CB"/>
<stop offset="1" stop-color="#0F82E0"/>
</linearGradient>
</defs>
</svg>
